<?xml version="1.0"?>
<svg xmlns="http://www.w3.org/2000/svg" viewBox="0 0 64 64" width="512" height="512"><path d="m7 17a1 1 0 0 1 -1-1 3 3 0 0 0 -3-3 1 1 0 0 1 0-2 3 3 0 0 0 3-3 1 1 0 0 1 2 0 3 3 0 0 0 3 3 1 1 0 0 1 0 2 3 3 0 0 0 -3 3 1 1 0 0 1 -1 1zm-1-5a5.07 5.07 0 0 1 1 1 5.07 5.07 0 0 1 1-1 5.07 5.07 0 0 1 -1-1 5.07 5.07 0 0 1 -1 1z" fill="#7fcac9"/><path d="m16 2h2v2h-2z" fill="#e9686a"/><path d="m16 6h2v2h-2z" fill="#e9686a"/><path d="m14 4h2v2h-2z" fill="#e9686a"/><path d="m18 4h2v2h-2z" fill="#e9686a"/><path d="m57 57a1 1 0 0 1 -1-1 3 3 0 0 0 -3-3 1 1 0 0 1 0-2 3 3 0 0 0 3-3 1 1 0 0 1 2 0 3 3 0 0 0 3 3 1 1 0 0 1 0 2 3 3 0 0 0 -3 3 1 1 0 0 1 -1 1zm-1-5a5.07 5.07 0 0 1 1 1 5.07 5.07 0 0 1 1-1 5.07 5.07 0 0 1 -1-1 5.07 5.07 0 0 1 -1 1z" fill="#7fcac9"/><g fill="#e9686a"><path d="m46 60h2v2h-2z"/><path d="m46 56h2v2h-2z"/><path d="m48 58h2v2h-2z"/><path d="m44 58h2v2h-2z"/><path d="m8 52h2v2h-2z"/><path d="m12 54h2v2h-2z"/><path d="m50 8h2v2h-2z"/><path d="m54 10h2v2h-2z"/></g><circle cx="32" cy="32" fill="#ffd782" r="20"/><circle cx="24" cy="28" fill="#fdbd40" r="5"/><circle cx="23" cy="44" fill="#fdbd40" r="3"/><circle cx="33" cy="15" fill="#fdbd40" r="3"/><circle cx="44" cy="22" fill="#fdbd40" r="4"/><circle cx="42" cy="40" fill="#fdbd40" r="7"/></svg>
