<?xml version="1.0" encoding="iso-8859-1"?>
<!-- Generator: Adobe Illustrator 19.0.0, SVG Export Plug-In . SVG Version: 6.00 Build 0)  -->
<svg version="1.1" id="Capa_1" xmlns="http://www.w3.org/2000/svg" xmlns:xlink="http://www.w3.org/1999/xlink" x="0px" y="0px"
	 viewBox="0 0 480 480" style="enable-background:new 0 0 480 480;" xml:space="preserve">
<polygon style="fill:#D4C8B8;" points="32,240 400,240 424,216 32,216 "/>
<polygon style="fill:#EBE5DD;" points="32,168 32,216 424,216 472,168 "/>
<polygon style="fill:#E7B900;" points="240,64 112,64 136,88 264,88 "/>
<polygon style="fill:#5AAAE7;" points="264,88 136,88 160,112 288,112 "/>
<polygon style="fill:#FFD422;" points="336,136 312,112 160,112 72,24 40,24 72,112 32,112.001 32,136 32,168 112,168 168,168 
	224,168 272,168 312,168 368,168 "/>
<polygon style="fill:#1E81CE;" points="280,136 312,168 368,168 336,136 "/>
<g>
	<polygon style="fill:#5AAAE7;" points="192,136 224,168 272,168 240,136 	"/>
	<polygon style="fill:#5AAAE7;" points="80,136 112,168 168,168 136,136 	"/>
</g>
<g>
	<polygon style="fill:#1E81CE;" points="136,136 168,168 224,168 192,136 	"/>
	<polygon style="fill:#1E81CE;" points="32,136 32,168 112,168 80,136 	"/>
</g>
<g>
	<rect x="56" y="184" style="fill:#5AAAE7;" width="16" height="16"/>
	<rect x="88" y="184" style="fill:#5AAAE7;" width="16" height="16"/>
	<rect x="120" y="184" style="fill:#5AAAE7;" width="16" height="16"/>
	<rect x="152" y="184" style="fill:#5AAAE7;" width="16" height="16"/>
	<rect x="184" y="184" style="fill:#5AAAE7;" width="16" height="16"/>
	<rect x="216" y="184" style="fill:#5AAAE7;" width="16" height="16"/>
	<rect x="248" y="184" style="fill:#5AAAE7;" width="16" height="16"/>
	<rect x="280" y="184" style="fill:#5AAAE7;" width="16" height="16"/>
	<rect x="312" y="184" style="fill:#5AAAE7;" width="16" height="16"/>
	<rect x="344" y="184" style="fill:#5AAAE7;" width="16" height="16"/>
	<rect x="376" y="184" style="fill:#5AAAE7;" width="16" height="16"/>
</g>
<path style="fill:#90C9F5;" d="M480,304c-26.693,0-26.693-32-53.386-32c-26.693,0-26.693,32-53.386,32
	c-26.674,0-26.674-32-53.349-32c-26.651,0-26.651,32-53.303,32c-26.666,0-26.666-32-53.332-32c-26.659,0-26.659,32-53.318,32
	c-26.658,0-26.658-32-53.317-32c-26.658,0-26.658,32-53.317,32C26.647,304,26.647,272,0,272v184h480V304z"/>
<path style="fill:#5AAAE7;" d="M480,352c-26.693,0-26.693-32-53.386-32c-26.693,0-26.693,32-53.386,32
	c-26.674,0-26.674-32-53.349-32c-26.651,0-26.651,32-53.303,32c-26.666,0-26.666-32-53.332-32c-26.659,0-26.659,32-53.318,32
	c-26.658,0-26.658-32-53.317-32c-26.658,0-26.658,32-53.317,32C26.647,352,26.647,320,0,320v136h480V352z"/>
<path style="fill:#1E81CE;" d="M480,400c-26.693,0-26.693-32-53.386-32c-26.693,0-26.693,32-53.386,32
	c-26.674,0-26.674-32-53.349-32c-26.651,0-26.651,32-53.303,32c-26.666,0-26.666-32-53.332-32c-26.659,0-26.659,32-53.318,32
	c-26.658,0-26.658-32-53.317-32c-26.658,0-26.658,32-53.317,32C26.647,400,26.647,368,0,368v88h480V400z"/>
<g>
</g>
<g>
</g>
<g>
</g>
<g>
</g>
<g>
</g>
<g>
</g>
<g>
</g>
<g>
</g>
<g>
</g>
<g>
</g>
<g>
</g>
<g>
</g>
<g>
</g>
<g>
</g>
<g>
</g>
</svg>
